<?xml version="1.0" encoding="UTF-8" standalone="no"?>
<!-- Created with Inkscape (http://www.inkscape.org/) -->

<svg
   xmlns:dc="http://purl.org/dc/elements/1.1/"
   xmlns:cc="http://creativecommons.org/ns#"
   xmlns:rdf="http://www.w3.org/1999/02/22-rdf-syntax-ns#"
   xmlns:svg="http://www.w3.org/2000/svg"
   xmlns="http://www.w3.org/2000/svg"
   xmlns:sodipodi="http://sodipodi.sourceforge.net/DTD/sodipodi-0.dtd"
   xmlns:inkscape="http://www.inkscape.org/namespaces/inkscape"
   version="1.1"
   id="svg28"
   width="26.034296"
   height="33.625702"
   viewBox="0 0 26.034296 33.625702"
   sodipodi:docname="bird.svg"
   inkscape:version="0.92.4 (5da689c313, 2019-01-14)">
  <metadata
     id="metadata34">
    <rdf:RDF>
      <cc:Work
         rdf:about="">
        <dc:format>image/svg+xml</dc:format>
        <dc:type
           rdf:resource="http://purl.org/dc/dcmitype/StillImage" />
        <dc:title></dc:title>
      </cc:Work>
    </rdf:RDF>
  </metadata>
  <defs
     id="defs32" />
  <sodipodi:namedview
     pagecolor="#ffffff"
     bordercolor="#666666"
     borderopacity="1"
     objecttolerance="10"
     gridtolerance="10"
     guidetolerance="10"
     inkscape:pageopacity="0"
     inkscape:pageshadow="2"
     inkscape:window-width="1366"
     inkscape:window-height="705"
     id="namedview30"
     showgrid="false"
     inkscape:zoom="2.972058"
     inkscape:cx="9.4667646"
     inkscape:cy="48.669757"
     inkscape:window-x="-8"
     inkscape:window-y="-8"
     inkscape:window-maximized="1"
     inkscape:current-layer="svg28"
     fit-margin-top="0"
     fit-margin-left="0"
     fit-margin-right="0"
     fit-margin-bottom="0" />
  <path
     style="fill:#000000;stroke-width:0.07244165"
     d="m 12.388822,33.525978 c -0.06551,-0.0789 -0.06815,-0.16648 -0.01044,-0.3441 0.06706,-0.20636 0.08763,-0.56747 0.07336,-1.28864 -0.0075,-0.37766 0.125672,-1.14865 0.217478,-1.25926 0.05265,-0.0634 0.07706,-0.16381 0.05426,-0.22312 -0.02275,-0.0593 0.006,-0.26348 0.06356,-0.45369 0.0577,-0.19021 0.105285,-0.42447 0.105722,-0.52058 4.31e-4,-0.0961 0.07995,-0.30984 0.176719,-0.47496 0.120318,-0.2053 0.155018,-0.33327 0.109775,-0.40478 -0.126917,-0.2006 -0.06659,-0.43213 0.18516,-0.7108 0.139447,-0.15436 0.253706,-0.3419 0.253902,-0.41675 2.22e-4,-0.0749 0.07837,-0.2336 0.173715,-0.35278 0.126298,-0.15785 0.16367,-0.27636 0.137676,-0.43657 -0.02902,-0.1789 0.01959,-0.28678 0.260607,-0.57848 0.195637,-0.23675 0.282271,-0.40276 0.255005,-0.48867 -0.07572,-0.23858 0.05561,-0.58144 0.313107,-0.81732 0.201535,-0.18464 0.267246,-0.31254 0.314664,-0.61251 0.03299,-0.20853 0.118379,-0.46005 0.189812,-0.55893 0.264808,-0.36658 0.383202,-0.64432 0.383309,-0.89923 6.8e-5,-0.15205 0.06087,-0.33913 0.144994,-0.44608 0.07969,-0.1013 0.144887,-0.22072 0.144887,-0.26538 0,-0.0446 0.102861,-0.284 0.228586,-0.53189 0.271076,-0.53447 0.293018,-1.04804 0.05857,-1.37139 -0.07826,-0.10795 -0.1423,-0.31272 -0.1423,-0.45503 0,-0.1557 -0.0406,-0.27435 -0.102027,-0.29791 -0.125106,-0.048 -0.290788,-0.42769 -0.229738,-0.52648 0.02444,-0.0395 -0.03763,-0.19271 -0.137904,-0.34046 -0.100269,-0.14775 -0.182306,-0.29981 -0.182306,-0.3379 0,-0.0381 -0.07055,-0.16834 -0.156783,-0.28945 -0.08623,-0.12109 -0.196922,-0.33694 -0.24599,-0.47965 -0.06376,-0.18545 -0.148205,-0.27705 -0.295973,-0.32103 -0.251269,-0.0748 -1.372925,-0.18483 -2.452462,-0.24061 l -0.796861,-0.0412 -0.833075,0.41352 c -0.458197,0.22742 -1.1753705,0.5252 -1.5937225,0.6617 -0.418345,0.1365 -0.859878,0.29388 -0.981174,0.34973 -0.121295,0.0558 -0.479875,0.19791 -0.796854,0.31569 -0.316979,0.11779 -0.804516,0.31852 -1.083415,0.44608 -0.601937,0.27531 -1.853702,0.70026 -2.463018,0.83617 -0.906577,0.2022 -2.065695,0.56867 -2.48576,0.78589 -0.29067898,0.15031 -0.56519898,0.1477 -0.62415698,-0.006 -0.03228,-0.0841 0.05457,-0.22433 0.282016,-0.45524 0.18076698,-0.18353 0.32866598,-0.37057 0.32866598,-0.41566 0,-0.1607 0.601001,-0.55429 1.039365,-0.68068 0.656511,-0.18928 1.311462,-0.43991 1.339779,-0.51269 0.0369,-0.0949 0.520069,-0.32209 0.797393,-0.37501 0.133461,-0.0254 0.33579,-0.12468 0.449618,-0.22046 0.113829,-0.0958 0.371682,-0.2486 0.573001,-0.33959 0.278234,-0.12574 0.356594,-0.19517 0.326675,-0.28945 -0.05804,-0.18276 0.148797,-0.35015 0.810231,-0.65577 0.325126,-0.15024 0.610462,-0.30442 0.63408,-0.34264 0.107903,-0.17459 -1.380675,-0.58972 -2.114646,-0.58972 -0.110651,0 -0.267723,-0.0466 -0.34906,-0.10358 -0.08134,-0.057 -0.357529,-0.12372 -0.61376,-0.14834 -0.802657,-0.0771 -0.926477,-0.10867 -0.970482,-0.24731 -0.03319,-0.10448 -0.143506,-0.14057 -0.529279,-0.17313 -0.268067,-0.0226 -0.585194,-0.0923 -0.70472,-0.15482 -0.119528,-0.0626 -0.290321,-0.11387 -0.379541,-0.11412 -0.08922,-2.1e-4 -0.33371,-0.0657 -0.54331198,-0.14528 -0.209603,-0.0797 -0.468415,-0.14487 -0.575136,-0.14489 -0.20138,-4e-5 -0.422534,-0.16466 -0.420606003189,-0.31309 C 0.00261252,13.923828 0.13784352,13.837938 0.44318352,13.840278 c 0.81165498,0.006 2.54697098,0.0943 3.06914098,0.15586 0.318743,0.0376 1.019616,0.0692 1.557493,0.0705 0.537884,0.001 1.278809,0.0396 1.646506,0.0852 0.414676,0.0515 1.184896,0.0676 2.028366,0.0422 2.5836215,-0.0776 2.7614845,-0.1104 4.0501705,-0.74675 0.723428,-0.35724 0.812413,-0.42228 0.860598,-0.62913 0.02955,-0.12689 0.04774,-0.28596 0.04046,-0.35347 -0.02303,-0.21272 0.136518,-0.69373 0.243722,-0.73487 0.05925,-0.0228 0.121302,-0.187 0.146468,-0.38776 0.02403,-0.19158 0.103299,-0.47872 0.176193,-0.63809 0.07289,-0.15937 0.185747,-0.47136 0.250784,-0.69331 0.06504,-0.22194 0.199919,-0.48027 0.299743,-0.57405 0.09982,-0.0938 0.181506,-0.24173 0.181506,-0.32877 0,-0.087 0.09211,-0.3409 0.204712,-0.56412 0.187288,-0.3713 0.196532,-0.42529 0.108658,-0.63428 -0.05285,-0.12563 -0.09605,-0.32595 -0.09605,-0.44512 0,-0.14486 -0.06006,-0.26392 -0.181101,-0.35916 -0.09961,-0.0784 -0.181108,-0.1859 -0.181108,-0.239 0,-0.0531 -0.116373,-0.23585 -0.258614,-0.4061 -0.170301,-0.20383 -0.245949,-0.35797 -0.221531,-0.45136 0.02377,-0.0909 -0.05245,-0.25907 -0.212252,-0.46836 -0.137137,-0.1796 -0.249343,-0.37979 -0.249343,-0.44485 0,-0.0651 -0.130398,-0.29185 -0.289766,-0.50396 -0.168329,-0.22402 -0.289765,-0.46618 -0.289765,-0.57781 0,-0.1197 -0.08205,-0.26962 -0.217539,-0.3975 -0.119645,-0.11293 -0.234498,-0.29211 -0.255234,-0.39819 -0.02074,-0.10608 -0.07281,-0.34875 -0.115727,-0.53926 -0.04289,-0.19051 -0.05824,-0.42517 -0.03407,-0.52147 0.03218,-0.12835 -0.0047,-0.22354 -0.137601,-0.35663 -0.125497,-0.12549 -0.181553,-0.26084 -0.181553,-0.43838 0,-0.32726 0.006,-0.30541 -0.193185,-0.70202002 -0.09296,-0.18507 -0.169017,-0.38767 -0.169017,-0.4502 0,-0.17404 0.235023,-0.27034 0.411061,-0.16845 0.08159,0.0473 0.316501,0.17638 0.522028,0.28702 0.205521,0.11063 0.609384,0.38353 0.897474,0.60644 0.288082,0.22291002 0.572684,0.42356002 0.63245,0.44590002 0.05978,0.0224 0.476468,0.35251 0.926012,0.73374 0.449538,0.3812 1.007916,0.8398 1.240838,1.0191 0.643794,0.49555 2.606201,2.31523 2.860432,2.65238 0.123605,0.16392 0.417336,0.55511 0.652736,0.8693 0.235393,0.3142 0.514265,0.68537 0.619712,0.82482 0.327784,0.43348 0.396471,0.6789 0.293226,1.04767 -0.04948,0.1768 -0.151423,0.37704 -0.226493,0.44498 -0.07506,0.0679 -0.136484,0.16236 -0.136484,0.20982 0,0.0475 -0.04625,0.18096 -0.102794,0.29665 -0.103763,0.21232 -0.138153,0.3895 -0.12287,0.63308 0.0094,0.14971 0.01973,0.14475 1.239848,-0.59581 0.778232,-0.47233 1.250849,-0.61601 1.878633,-0.5711 0.536678,0.0384 0.825078,0.1639 1.241754,0.54033 0.281383,0.25422 0.29303,0.25755 0.652028,0.18657 0.296754,-0.0587 0.385759,-0.052 0.473054,0.0353 0.147257,0.14725 0.01306,0.34784 -0.424135,0.63389 -0.251975,0.16487 -0.352527,0.28708 -0.417208,0.50709 -0.04686,0.15943 -0.285941,0.67571 -0.531271,1.14729 -0.359853,0.69172 -0.56938,0.99004 -1.084203,1.54375 -0.35098,0.37747 -0.782265,0.90911 -0.958411,1.1814 -0.382218,0.59085 -0.60181,0.78696 -1.144305,1.02192 -0.303325,0.13138 -0.408193,0.21456 -0.409115,0.32451 -6.53e-4,0.0813 0.163199,0.4073 0.364175,0.72442 0.200969,0.31711 0.469911,0.78778 0.597643,1.04591 0.319193,0.64509 0.315208,1.20417 -0.01575,2.21099 -0.39602,1.2047 -2.253345,4.83082 -2.968418,5.79534 -0.147693,0.19921 -0.400261,0.59261 -0.561266,0.87422 -0.160997,0.2816 -0.485968,0.75429 -0.722148,1.0504 -0.236174,0.29612 -0.588493,0.78289 -0.782918,1.08171 -0.311081,0.47812 -0.671001,0.9624 -1.454329,1.95683 -0.119524,0.15174 -0.298821,0.38437 -0.398431,0.51695 -0.504401,0.67141 -1.680679,1.89841 -2.045036,2.13322 -0.309042,0.19917 -0.506657,0.22049 -0.632975,0.0683 z"
     id="path50"
     inkscape:connector-curvature="0"
     inkscape:export-xdpi="96"
     inkscape:export-ydpi="96" />
  <path
     style="fill:#000000"
     d=""
     id="path44"
     inkscape:connector-curvature="0" />
</svg>
