<?xml version="1.0" encoding="UTF-8" standalone="no"?>
<!-- Created with Inkscape (http://www.inkscape.org/) -->

<svg
   xmlns:dc="http://purl.org/dc/elements/1.1/"
   xmlns:cc="http://creativecommons.org/ns#"
   xmlns:rdf="http://www.w3.org/1999/02/22-rdf-syntax-ns#"
   xmlns:svg="http://www.w3.org/2000/svg"
   xmlns="http://www.w3.org/2000/svg"
   xmlns:sodipodi="http://sodipodi.sourceforge.net/DTD/sodipodi-0.dtd"
   xmlns:inkscape="http://www.inkscape.org/namespaces/inkscape"
   version="1.1"
   id="svg10"
   width="42.234673"
   height="46.505978"
   viewBox="0 0 42.234673 46.505978"
   sodipodi:docname="cat.svg"
   inkscape:version="0.92.4 (5da689c313, 2019-01-14)">
  <metadata
     id="metadata16">
    <rdf:RDF>
      <cc:Work
         rdf:about="">
        <dc:format>image/svg+xml</dc:format>
        <dc:type
           rdf:resource="http://purl.org/dc/dcmitype/StillImage" />
        <dc:title></dc:title>
      </cc:Work>
    </rdf:RDF>
  </metadata>
  <defs
     id="defs14">
    <filter
       inkscape:collect="always"
       style="color-interpolation-filters:sRGB"
       id="filter11"
       x="-0.012606796"
       width="1.0252136"
       y="-0.011448934"
       height="1.0228979">
      <feGaussianBlur
         inkscape:collect="always"
         stdDeviation="0.22185163"
         id="feGaussianBlur13" />
    </filter>
  </defs>
  <sodipodi:namedview
     pagecolor="#ffffff"
     bordercolor="#666666"
     borderopacity="1"
     objecttolerance="10"
     gridtolerance="10"
     guidetolerance="10"
     inkscape:pageopacity="0"
     inkscape:pageshadow="2"
     inkscape:window-width="1366"
     inkscape:window-height="705"
     id="namedview12"
     showgrid="false"
     inkscape:zoom="5.6781004"
     inkscape:cx="35.581306"
     inkscape:cy="43.070728"
     inkscape:window-x="-8"
     inkscape:window-y="-8"
     inkscape:window-maximized="1"
     inkscape:current-layer="svg10"
     fit-margin-top="0"
     fit-margin-left="0"
     fit-margin-right="0"
     fit-margin-bottom="0" />
  <path
     style="opacity:0.83999999;fill:#000000;stroke-width:0.13082594;filter:url(#filter11)"
     d="m 5.8337484,46.304 c -0.839696,-0.23835 -1.151164,-0.51079 -1.151164,-1.00691 0,-0.40268 -0.07081,-0.44455 -1.015371,-0.60037 -0.636398,-0.10499 -1.403362,-0.78187 -1.403362,-1.23855 0,-0.418 0.440346,-0.90175 1.204384,-1.3231 0.914573,-0.50436 1.012467,-0.79463 0.832827,-2.46943 -0.0736,-0.68617 -0.186431,-1.49707 -0.250739,-1.802 -0.06431,-0.30492 -0.239337,-1.37118 -0.388954,-2.36945 -0.373285,-2.49065 -0.653456,-3.49442 -1.61082,-5.77113 -1.06426497,-2.53093 -1.80001297,-4.86644 -1.96661897,-6.2427 -0.270262,-2.23253 0.11747,-5.26544 1.08660097,-8.4996 0.792072,-2.6433 1.014921,-3.22596 1.641618,-4.29217 0.71516,-1.21671 0.852021,-1.65987 0.852021,-2.75882 0,-0.49701 0.10853,-1.59214 0.241178,-2.43361 C 4.1101694,4.19685 4.4014274,2.1785 4.6354144,0.43696 4.6677044,0.19663 4.7408604,0 4.7979874,0 c 0.05713,0 0.229257,0.34789 0.382511,0.77308 0.153255,0.42519 0.508957,1.17702 0.790449,1.67075 0.560148,0.98246 0.876473,1.18626 1.841241,1.18626 0.300068,0 0.698409,0.0614 0.885204,0.13638 0.1868,0.075 0.954238,0.15848 1.7054226,0.18551 0.823972,0.0297 1.496832,0.12222 1.696115,0.23336 0.181675,0.10131 0.663927,0.59887 1.071678,1.10568 0.628947,0.78174 0.866821,0.97295 1.568821,1.26113 0.4551,0.18682 1.01045,0.48357 1.23412,0.65944 0.39424,0.31001 0.40666,0.35053 0.40666,1.32753 0,1.16199 -0.34449,2.44446 -0.84378,3.1412 -0.22443,0.3132 -0.68562,0.63058 -1.48747,1.02363 -0.77634,0.38055 -1.303094,0.73918 -1.586598,1.0802 -0.389832,0.46891 -0.419875,0.56823 -0.368781,1.21898 0.03497,0.44522 0.217582,1.04835 0.491452,1.62307 0.51945,1.09008 0.66585,1.19215 3.618367,2.5228 2.76044,1.24408 3.22632,1.50455 4.77381,2.669 4.35015,3.27336 6.41451,7.80082 6.58705,14.44638 0.0497,1.91324 0.10405,2.48621 0.24791,2.61231 0.14345,0.12573 0.47144,0.12569 1.4803,-1.4e-4 0.71282,-0.089 2.38446,-0.2208 3.71476,-0.29302 1.3303,-0.0722 2.81973,-0.16743 3.30985,-0.21158 2.26579,-0.20409 5.92532,1.06364 5.91758,2.04997 -0.006,0.71498 -0.66548,0.88931 -2.70608,0.7149 -1.51448,-0.12944 -5.0522,0.009 -6.90325,0.27075 -1.33862,0.18906 -3.19014,0.7329 -4.88427,1.43462 l -1.51548,0.62772 -0.0764,0.58881 c -0.10628,0.81895 -0.26184,1.06934 -0.87977,1.41609 -0.73827,0.41428 -2.65014,0.41035 -4.03934,-0.008 -0.99566,-0.30005 -1.07308,-0.29747 -2.92618,0.0974 -0.31506,0.0671 -1.49372,0.19551 -2.61922,0.28528 -1.818626,0.14505 -2.089915,0.13944 -2.437532,-0.0504 -0.349121,-0.19067 -0.712857,-0.78971 -0.970464,-1.59828 -0.118848,-0.37304 -0.859076,-0.77279 -1.432029,-0.77334 -0.597303,-4.9e-4 -0.762757,0.15268 -1.2332276,1.1423 -0.365192,0.76818 -1.119446,1.64003 -1.578167,1.82423 -0.444556,0.1785 -1.390692,0.13995 -2.199481,-0.0896 z m 1.26757,-4.87948 c 0,-0.19568 0.171857,-1.07953 0.381905,-1.96413 0.210047,-0.88459 0.376241,-1.85148 0.369322,-2.14865 l -0.01258,-0.5403 -0.180684,0.60502 c -0.142518,0.47723 -0.939858,4.45048 -0.939858,4.68345 0,0.0303 0.08593,-0.0202 0.190953,-0.11224 0.105024,-0.092 0.190953,-0.32747 0.190953,-0.52315 z"
     id="path3724"
     inkscape:connector-curvature="0" />
</svg>
